<?xml version="1.0" encoding="utf-8"?>
<!-- Generator: Adobe Illustrator 26.3.1, SVG Export Plug-In . SVG Version: 6.00 Build 0)  -->
<svg version="1.1" id="Layer_1" xmlns="http://www.w3.org/2000/svg" xmlns:xlink="http://www.w3.org/1999/xlink" x="0px" y="0px"
	 viewBox="0 0 707.3 712.2" style="enable-background:new 0 0 707.3 712.2;" xml:space="preserve">
<g>
	<path d="M697.3,307.6c-8.2,15.4-18.2,17.6-32.4,7.1C562.9,240.1,460.9,165.5,359,90.7c-4.1-3-6.6-2.4-10.3,0.3
		C247,165.6,145.2,240.1,43.4,314.6c-12.1,8.9-22.6,8.5-29.3-1c-6.6-9.3-3.8-19,8.2-27.7C127.8,208.6,233.4,131.3,339,54.1
		c12.6-9.2,17.6-9.2,30-0.2C474.9,131.4,580.8,209,686.7,286.7c4.1,3,7.1,7.7,10.6,11.6C697.3,301.4,697.3,304.5,697.3,307.6z"/>
	<path d="M122.1,623.3c47.8,0,94.7,0,142.2,0c0.2-3,0.4-5.8,0.4-8.6c0-48-0.1-96.1,0.1-144.1c0.2-42.9,26.5-77.6,66.5-88.2
		c53.6-14.3,107.4,24,111.3,79.4c0.7,9.3,0.5,18.8,0.5,28.1c0,41.6,0,83.1,0,124.7c0,2.7,0,5.3,0,8.5c47.8,0,94.9,0,142.7,0
		c0-2.9,0-5.5,0-8.2c0-90.7,0-181.4,0-272.1c0-13,7.1-21,18.3-20.8c8.5,0.2,15.4,6,16.8,14.4c0.5,2.8,0.5,5.8,0.5,8.7
		c0,97,0,193.9,0,290.9c0,1.8,0,3.6-0.1,5.4c-0.9,11.1-7.6,17.7-18.7,17.7c-58.8,0.1-117.5,0.1-176.3,0c-12.2,0-18.9-7.3-18.9-20.1
		c0-56.3,0.1-112.6-0.1-168.9c-0.1-30.1-22.1-53.7-51.1-55c-30.6-1.4-55.8,22.8-55.9,54.1c-0.2,55-0.1,109.9-0.1,164.9c0,2,0,4,0,6
		c-0.2,11.7-7.1,19-18.8,19c-58.8,0.1-117.5,0.1-176.3,0c-11.4,0-18.2-6.7-18.9-18.2c-0.1-2.2-0.1-4.5-0.1-6.7
		c0-95.8,0-191.7,0-287.5c0-3.1,0-6.3,0.4-9.4c1.3-9.4,8.7-15.6,18.1-15.2c9.2,0.3,16.3,7.2,17.1,16.5c0.2,2.4,0.1,4.9,0.1,7.4
		c0,89.6,0,179.2,0,268.8C122.1,617.3,122.1,620,122.1,623.3z"/>
</g>
</svg>
