<?xml version="1.0" encoding="utf-8"?>
<!-- Generator: Adobe Illustrator 26.3.1, SVG Export Plug-In . SVG Version: 6.00 Build 0)  -->
<svg version="1.1" id="Layer_1" xmlns="http://www.w3.org/2000/svg" xmlns:xlink="http://www.w3.org/1999/xlink" x="0px" y="0px"
	 viewBox="0 0 707.27 712.18" style="enable-background:new 0 0 707.27 712.18;" xml:space="preserve">
<style type="text/css">
	.st0{fill:#FFFFFF;}
</style>
<g>
	<path class="st0" d="M697.27,307.65c0,130.06,0,260.11,0,390.17c-229.27,0-458.55,0-687.82,0c0-229.27,0-458.55,0-687.82
		c229.27,0,458.55,0,687.82,0c0,96.09,0,192.18,0,288.27c-3.5-3.91-6.44-8.58-10.58-11.62C580.86,208.96,474.91,131.44,368.97,53.9
		c-12.39-9.07-17.37-9.07-29.96,0.15C233.43,131.32,127.86,208.62,22.3,285.92c-11.93,8.74-14.74,18.35-8.16,27.68
		c6.68,9.48,17.21,9.86,29.3,1.01C145.22,240.1,247.02,165.59,348.74,90.99c3.7-2.71,6.17-3.36,10.31-0.32
		C460.9,165.47,562.88,240.1,664.83,314.78C679.09,325.23,689.04,323.08,697.27,307.65z M122.12,623.33c0-3.32,0-5.98,0-8.64
		c0-89.59,0-179.19,0-268.78c0-2.46,0.1-4.93-0.09-7.37c-0.72-9.36-7.85-16.23-17.05-16.54c-9.38-0.31-16.81,5.84-18.11,15.25
		c-0.43,3.08-0.42,6.24-0.42,9.36c-0.02,95.85-0.02,191.7-0.01,287.55c0,2.23-0.07,4.47,0.07,6.7c0.75,11.49,7.49,18.18,18.91,18.2
		c58.76,0.08,117.52,0.09,176.28,0c11.6-0.02,18.52-7.27,18.75-18.96c0.04-2.01,0.01-4.02,0.01-6.03
		c0-54.96-0.14-109.93,0.06-164.89c0.12-31.35,25.33-55.45,55.94-54.1c28.94,1.28,51.02,24.82,51.09,54.97
		c0.14,56.3,0.02,112.61,0.06,168.91c0.01,12.82,6.73,20.09,18.94,20.11c58.76,0.08,117.52,0.08,176.28-0.01
		c11.05-0.02,17.8-6.66,18.69-17.72c0.14-1.78,0.1-3.57,0.1-5.36c0-96.97,0.01-193.93-0.02-290.9c0-2.89-0.07-5.83-0.55-8.67
		c-1.43-8.42-8.35-14.23-16.84-14.42c-11.18-0.25-18.26,7.73-18.27,20.78c-0.02,90.71-0.01,181.42-0.01,272.13c0,2.63,0,5.27,0,8.15
		c-47.77,0-94.94,0-142.7,0c0-3.24,0-5.89,0-8.54c0-41.56,0.03-83.11-0.02-124.67c-0.01-9.38,0.18-18.79-0.48-28.13
		c-3.92-55.33-57.77-93.62-111.32-79.35c-40.09,10.68-66.38,45.32-66.55,88.24c-0.18,48.04-0.04,96.07-0.07,144.11
		c0,2.79-0.27,5.59-0.43,8.63C216.79,623.33,169.95,623.33,122.12,623.33z"/>
	<path d="M697.27,307.65c-8.23,15.42-18.18,17.57-32.44,7.13C562.88,240.1,460.9,165.47,359.05,90.66
		c-4.14-3.04-6.61-2.39-10.31,0.32C247.02,165.59,145.22,240.1,43.43,314.62c-12.09,8.85-22.62,8.47-29.3-1.01
		c-6.57-9.34-3.77-18.95,8.16-27.68c105.56-77.3,211.13-154.59,316.71-231.87c12.59-9.22,17.57-9.22,29.96-0.15
		c105.94,77.54,211.89,155.06,317.72,232.75c4.14,3.04,7.08,7.71,10.58,11.62C697.27,301.4,697.27,304.52,697.27,307.65z"/>
	<path d="M122.12,623.33c47.83,0,94.67,0,142.25,0c0.16-3.05,0.43-5.84,0.43-8.63c0.03-48.04-0.12-96.07,0.07-144.11
		c0.17-42.92,26.46-77.56,66.55-88.24c53.56-14.28,107.4,24.02,111.32,79.35c0.66,9.34,0.47,18.75,0.48,28.13
		c0.04,41.56,0.02,83.11,0.02,124.67c0,2.65,0,5.3,0,8.54c47.77,0,94.93,0,142.7,0c0-2.88,0-5.52,0-8.15
		c0-90.71-0.01-181.42,0.01-272.13c0-13.04,7.09-21.03,18.27-20.78c8.5,0.19,15.41,6,16.84,14.42c0.48,2.84,0.55,5.78,0.55,8.67
		c0.03,96.97,0.02,193.93,0.02,290.9c0,1.79,0.04,3.58-0.1,5.36c-0.89,11.06-7.64,17.71-18.69,17.72
		c-58.76,0.09-117.52,0.09-176.28,0.01c-12.22-0.02-18.93-7.29-18.94-20.11c-0.04-56.3,0.08-112.61-0.06-168.91
		c-0.07-30.14-22.14-53.68-51.09-54.97c-30.61-1.36-55.83,22.75-55.94,54.1c-0.21,54.96-0.06,109.93-0.06,164.89
		c0,2.01,0.03,4.02-0.01,6.03c-0.23,11.69-7.15,18.95-18.75,18.96c-58.76,0.09-117.52,0.08-176.28,0
		c-11.42-0.02-18.16-6.71-18.91-18.2c-0.14-2.23-0.07-4.47-0.07-6.7c0-95.85-0.01-191.7,0.01-287.55c0-3.12-0.01-6.28,0.42-9.36
		c1.31-9.41,8.73-15.56,18.11-15.25c9.2,0.3,16.33,7.17,17.05,16.54c0.19,2.44,0.09,4.91,0.09,7.37c0,89.59,0,179.19,0,268.78
		C122.12,617.35,122.12,620.01,122.12,623.33z"/>
</g>
</svg>
