<?xml version="1.0" encoding="utf-8"?>
<!-- Generator: Adobe Illustrator 26.3.1, SVG Export Plug-In . SVG Version: 6.00 Build 0)  -->
<svg version="1.1" id="Layer_1" xmlns="http://www.w3.org/2000/svg" xmlns:xlink="http://www.w3.org/1999/xlink" x="0px" y="0px"
	 viewBox="0 0 707.3 712.2" style="enable-background:new 0 0 707.3 712.2;" xml:space="preserve">
<g>
	<path d="M693.2,354.4c-0.5,188.7-152.8,340.5-341,340.1C163.9,694,12.1,541.2,12.8,352.8c0.7-188,153.8-339.5,342.5-338.7
		C541.5,14.9,693.7,168.1,693.2,354.4z M352.2,672.8c174.9,0.4,319-142.8,319.3-317.5c0.4-175.3-142.1-319-317-319.5
		c-176.1-0.5-319.8,142.3-320,318.1C34.2,529,177.1,672.5,352.2,672.8z"/>
	<path d="M352,376c-72.7-0.4-130.8-59.2-130.4-132.1C222,170.4,281,112.4,354.8,113c72.5,0.7,130.3,59.8,129.7,132.9
		C483.9,318.6,425.1,376.3,352,376z M352.4,354.2c60.5,0.3,110.1-48.7,110.5-109.1c0.4-60.2-48.7-109.9-109.2-110.6
		c-59.8-0.7-110.3,49.3-110.5,109.3C242.9,304.4,291.9,353.9,352.4,354.2z"/>
	<path d="M352.7,419.9c88.1,1.8,164.7,30.6,229.6,89.3c2.6,2.3,6.4,4.4,7.2,7.3c1.3,4.7,2.5,11.5,0.1,14.3
		c-2.3,2.6-9.5,2.3-14.1,1.2c-3.4-0.8-6.1-4.8-9-7.5c-121.1-110.1-306.6-109.7-428,0.9c-2.9,2.7-5.7,6.5-9.1,7.3
		c-4.1,1-10.6,0.8-12.9-1.7c-2.4-2.6-2.2-9-0.9-13.1c1-3.3,5.1-5.9,8-8.5C188.9,450.2,266,421.5,352.7,419.9z"/>
</g>
</svg>
