<?xml version="1.0" encoding="utf-8"?>
<!-- Generator: Adobe Illustrator 26.3.1, SVG Export Plug-In . SVG Version: 6.00 Build 0)  -->
<svg version="1.1" id="Layer_1" xmlns="http://www.w3.org/2000/svg" xmlns:xlink="http://www.w3.org/1999/xlink" x="0px" y="0px"
	 viewBox="0 0 707.27 712.18" style="enable-background:new 0 0 707.27 712.18;" xml:space="preserve">
<style type="text/css">
	.st0{fill:#FFFFFF;}
</style>
<g>
	<path class="st0" d="M1.71,3c235.19,0,470.38,0,705.57,0c0,235.19,0,470.38,0,705.57c-235.19,0-470.38,0-705.57,0
		C1.71,473.38,1.71,238.19,1.71,3z M693.22,354.38c0.47-186.29-151.7-339.51-337.99-340.32C166.59,13.25,13.43,164.72,12.76,352.75
		C12.1,541.15,163.94,694.02,352.2,694.48C540.46,694.93,692.75,543.06,693.22,354.38z"/>
	<path d="M693.22,354.38c-0.47,188.68-152.76,340.55-341.03,340.1C163.94,694.02,12.1,541.15,12.76,352.75
		C13.43,164.72,166.59,13.25,355.24,14.06C541.52,14.87,693.69,168.09,693.22,354.38z M352.2,672.83
		C527.12,673.21,671.17,530,671.54,355.37c0.37-175.4-142.18-319.1-317.06-319.62C178.4,35.23,34.69,178.09,34.46,353.89
		C34.22,529.02,177.12,672.45,352.2,672.83z"/>
	<path class="st0" d="M352.2,672.83C177.12,672.45,34.22,529.02,34.46,353.89C34.69,178.09,178.4,35.23,354.48,35.75
		c174.88,0.52,317.42,144.22,317.06,319.62C671.17,530,527.12,673.21,352.2,672.83z M351.98,375.95
		c73.11,0.39,131.87-57.34,132.44-130.09c0.57-73.06-57.17-132.21-129.69-132.86c-73.74-0.67-132.82,57.39-133.17,130.87
		C221.21,316.75,279.28,375.56,351.98,375.95z M352.74,419.87c-86.73,1.64-163.87,30.29-229.17,89.41c-2.93,2.65-7,5.16-8.02,8.5
		c-1.24,4.09-1.45,10.5,0.94,13.11c2.32,2.54,8.77,2.69,12.91,1.73c3.43-0.79,6.23-4.63,9.15-7.29
		c121.35-110.55,306.82-110.92,427.97-0.86c2.93,2.66,5.6,6.7,9.01,7.5c4.58,1.07,11.82,1.41,14.1-1.24
		c2.42-2.8,1.22-9.7-0.06-14.34c-0.79-2.87-4.65-4.93-7.22-7.25C517.4,450.5,440.82,421.7,352.74,419.87z"/>
	<path d="M351.98,375.95c-72.7-0.39-130.78-59.2-130.42-132.08c0.36-73.48,59.43-131.54,133.17-130.87
		c72.53,0.66,130.26,59.8,129.69,132.86C483.86,318.61,425.09,376.34,351.98,375.95z M352.36,354.24
		c60.47,0.32,110.13-48.72,110.51-109.11c0.38-60.17-48.74-109.89-109.25-110.57c-59.77-0.68-110.32,49.32-110.51,109.3
		C242.92,304.4,291.94,353.92,352.36,354.24z"/>
	<path d="M352.74,419.87c88.08,1.82,164.66,30.63,229.6,89.28c2.57,2.32,6.43,4.39,7.22,7.25c1.28,4.65,2.48,11.54,0.06,14.34
		c-2.28,2.64-9.52,2.31-14.1,1.24c-3.4-0.8-6.07-4.83-9.01-7.5c-121.15-110.07-306.62-109.69-427.97,0.86
		c-2.92,2.66-5.72,6.49-9.15,7.29c-4.14,0.96-10.59,0.8-12.91-1.73c-2.39-2.61-2.18-9.02-0.94-13.11c1.01-3.34,5.09-5.85,8.02-8.5
		C188.87,450.16,266,421.51,352.74,419.87z"/>
	<path class="st0" d="M352.36,354.24c-60.42-0.32-109.44-49.85-109.25-110.38c0.19-59.97,50.75-109.98,110.51-109.3
		c60.51,0.69,109.62,50.4,109.25,110.57C462.49,305.52,412.83,354.56,352.36,354.24z"/>
</g>
</svg>
