<?xml version="1.0" encoding="utf-8"?>
<!-- Generator: Adobe Illustrator 26.3.1, SVG Export Plug-In . SVG Version: 6.00 Build 0)  -->
<svg version="1.1" id="Layer_1" xmlns="http://www.w3.org/2000/svg" xmlns:xlink="http://www.w3.org/1999/xlink" x="0px" y="0px"
	 viewBox="0 0 707.3 712.2" style="enable-background:new 0 0 707.3 712.2;" xml:space="preserve">
<g>
	<path d="M690.3,618.8c-4.6,8.9-12.1,11.1-21.7,11.1c-210.5-0.2-421-0.1-631.6-0.2c-2.4,0-4.8,0-7.2-0.2c-8.4-0.7-14.4-6.9-14.6-15
		c-0.3-8,5.2-15.1,13.6-15.9c8.7-0.8,17.5-0.4,26.3-0.6c3.7,0,7.3,0,11.8,0c0-3.3,0-5.8,0-8.4c0-38.5,0-76.9,0-115.4
		c0-3.3,0.2-6.6,1-9.8c1.9-7,8.8-11.2,16.2-10.7c7.3,0.5,13.2,6,14.1,13.4c0.3,2.6,0.2,5.3,0.2,7.9c0,38,0,76,0,114
		c0,2.6,0,5.2,0,8.4c49.6,0,98.6,0,148.5,0c0-2.7,0-5.3,0-7.9c0-87.2,0-174.5,0-261.7c0-1.8,0-3.5,0-5.3
		c0.1-11.5,6.2-18.8,15.7-18.8c9.5,0,15.9,7.4,15.9,18.8c0,75.6,0,151.2,0,226.8c0,14.9,0,29.9,0,44.8c0,1,0.2,2.1,0.4,3.4
		c49.2,0,98.1,0,147.6,0c0-2.9,0-5.5,0-8.1c0-63.3,0-126.6,0-189.9c0-3,0.1-6.2,0.8-9.1c1.9-7.5,8.7-12.3,16.1-11.8
		c7.8,0.5,13.9,6.6,14.5,14.5c0.2,2.4,0.1,4.8,0.1,7.2c0,62.9,0,125.7,0,188.5c0,2.6,0,5.2,0,8.4c49.5,0,98.6,0,148.5,0
		c0-2.9,0-5.7,0-8.5c0-112.5,0-225,0-337.5c0-2.9-0.1-5.7,0.2-8.6c0.8-7.6,6.8-13.2,14.5-13.7c7.8-0.4,14.4,4.2,16.1,11.7
		c0.8,3.4,0.8,7,0.8,10.5c0,112.5,0,225,0,337.5c0,2.8,0,5.6,0,9.1c10.6,0,20.4,0.3,30.2-0.1c9.7-0.4,17.1,2.5,21.5,11.5
		C690.3,612.7,690.3,615.8,690.3,618.8z"/>
	<path d="M438.8,284.9c49.7-59.9,99.2-119.6,149.9-180.8c-12.9,0-24,0.1-35.1,0c-4.8,0-9.7,0.1-14.5-0.6
		c-8.3-1.2-13.6-8.2-13.1-16.3c0.5-7.8,6.4-14.4,14.4-14.5c27.7-0.3,55.4-0.3,83.1,0c9.5,0.1,14.8,7.1,14.9,18.1
		c0.1,22.2,0,44.4,0,66.6c0,3.7,0.2,7.5-0.1,11.2c-0.7,9.6-7.2,16.1-15.8,16.1c-8.9,0-15.5-6.9-15.7-16.8c-0.2-11.1,0-22.3,0-35.6
		c-2.7,3.1-4.3,4.7-5.7,6.4c-48,57.8-96,115.7-144,173.5c-8,9.7-14.2,11-25.2,5.1c-53.1-28.3-106.1-56.6-159.2-84.8
		c-2.1-1.1-4.3-2.2-7.9-4c-0.9,1.4-1.8,3.3-3.1,4.7c-54.9,58.5-109.8,117-164.6,175.5c-5.1,5.4-10.4,9.6-18.4,7.4
		c-11.1-3.1-15.4-15.5-8.5-24.6c2.2-3,4.9-5.6,7.5-8.3c56.7-60.4,113.4-120.8,170.1-181.2c9.5-10.1,14.3-10.9,26.6-4.4
		c52.7,28.1,105.4,56.1,158.1,84.2C434.5,282.8,436.5,283.7,438.8,284.9z"/>
</g>
</svg>
