<?xml version="1.0" encoding="utf-8"?>
<!-- Generator: Adobe Illustrator 26.3.1, SVG Export Plug-In . SVG Version: 6.00 Build 0)  -->
<svg version="1.1" id="Layer_1" xmlns="http://www.w3.org/2000/svg" xmlns:xlink="http://www.w3.org/1999/xlink" x="0px" y="0px"
	 viewBox="0 0 707.27 712.18" style="enable-background:new 0 0 707.27 712.18;" xml:space="preserve">
<style type="text/css">
	.st0{fill:#FFFFFF;}
</style>
<g>
	<path class="st0" d="M690.27,618.84c0,23.74,0,47.48,0,71.21c-225.51,0-451.02,0-676.53,0c0-225.51,0-451.02,0-676.53
		c225.51,0,451.02,0,676.53,0c0,198.69,0,397.39,0,596.08c-4.41-9.02-11.87-11.94-21.54-11.52c-9.81,0.42-19.65,0.09-30.24,0.09
		c0-3.52,0-6.31,0-9.1c0-112.51,0.01-225.03-0.03-337.54c0-3.49-0.06-7.08-0.82-10.46c-1.69-7.55-8.32-12.16-16.09-11.71
		c-7.64,0.44-13.66,6.03-14.48,13.67c-0.3,2.83-0.22,5.71-0.22,8.56c-0.01,112.51-0.01,225.03-0.01,337.54c0,2.79,0,5.58,0,8.45
		c-49.92,0-98.97,0-148.49,0c0-3.18,0-5.79,0-8.4c0-62.85,0-125.7,0-188.55c0-2.42,0.07-4.84-0.13-7.25
		c-0.66-7.91-6.75-13.92-14.54-14.47c-7.44-0.53-14.29,4.29-16.15,11.78c-0.73,2.93-0.8,6.08-0.8,9.13
		c-0.04,63.29-0.03,126.58-0.03,189.87c0,2.58,0,5.15,0,8.1c-49.58,0-98.45,0-147.65,0c-0.16-1.33-0.39-2.38-0.4-3.42
		c-0.03-14.94-0.03-29.89-0.03-44.83c0-75.6,0.02-151.19-0.02-226.79c-0.01-11.4-6.34-18.74-15.88-18.78
		c-9.51-0.03-15.65,7.28-15.74,18.75c-0.01,1.76,0,3.52,0,5.27c0,87.24,0,174.48,0,261.73c0,2.57,0,5.14,0,7.87
		c-49.84,0-98.89,0-148.49,0c0-3.15,0-5.76,0-8.36c0-38.02,0-76.03-0.01-114.05c0-2.63,0.06-5.29-0.25-7.9
		c-0.89-7.34-6.77-12.84-14.07-13.38c-7.48-0.55-14.29,3.72-16.24,10.7c-0.87,3.11-1.03,6.5-1.04,9.77
		c-0.07,38.46-0.04,76.91-0.04,115.37c0,2.57,0,5.13,0,8.42c-4.46,0-8.13-0.04-11.81,0.01c-8.78,0.11-17.61-0.24-26.33,0.56
		c-8.34,0.76-13.87,7.88-13.59,15.89c0.28,8.1,6.28,14.31,14.63,15.03c2.4,0.21,4.83,0.16,7.25,0.16
		c210.52,0.01,421.05-0.04,631.57,0.15C678.21,629.98,685.7,627.76,690.27,618.84z M438.84,284.89c-2.39-1.2-4.35-2.13-6.26-3.15
		c-52.7-28.06-105.39-56.13-158.09-84.19c-12.27-6.53-17.07-5.76-26.58,4.37c-56.72,60.4-113.42,120.81-170.12,181.22
		c-2.55,2.72-5.24,5.36-7.47,8.34c-6.89,9.18-2.55,21.57,8.49,24.65c8,2.23,13.33-1.96,18.38-7.35
		c54.85-58.53,109.76-117.01,164.61-175.54c1.34-1.42,2.19-3.3,3.1-4.71c3.6,1.81,5.76,2.84,7.88,3.96
		c53.08,28.27,106.15,56.57,159.23,84.83c11.06,5.89,17.16,4.63,25.22-5.07c47.99-57.83,95.96-115.68,143.95-173.51
		c1.42-1.71,2.95-3.32,5.67-6.38c0,13.26-0.14,24.41,0.04,35.55c0.16,9.93,6.75,16.82,15.66,16.82c8.62,0,15.18-6.59,15.83-16.14
		c0.26-3.72,0.09-7.47,0.09-11.2c0-22.2,0.07-44.4-0.03-66.59c-0.05-11.01-5.41-18.03-14.88-18.13
		c-27.69-0.32-55.38-0.27-83.07,0.02c-8.01,0.08-13.87,6.63-14.39,14.47c-0.53,8.08,4.82,15.1,13.1,16.32
		c4.74,0.7,9.63,0.55,14.46,0.58c11.1,0.07,22.2,0.02,35.11,0.02C538.07,165.24,488.52,224.98,438.84,284.89z"/>
	<path d="M690.27,618.84c-4.58,8.92-12.06,11.14-21.71,11.13c-210.52-0.18-421.05-0.14-631.57-0.15c-2.42,0-4.84,0.05-7.25-0.16
		c-8.35-0.72-14.35-6.93-14.63-15.03c-0.28-8.02,5.25-15.13,13.59-15.89c8.72-0.79,17.55-0.44,26.33-0.56
		c3.67-0.05,7.35-0.01,11.81-0.01c0-3.29,0-5.85,0-8.42c0-38.46-0.02-76.91,0.04-115.37c0.01-3.27,0.17-6.65,1.04-9.77
		c1.95-6.98,8.76-11.25,16.24-10.7c7.3,0.54,13.18,6.04,14.07,13.38c0.31,2.61,0.25,5.26,0.25,7.9
		c0.01,38.02,0.01,76.03,0.01,114.05c0,2.6,0,5.21,0,8.36c49.6,0,98.64,0,148.49,0c0-2.73,0-5.3,0-7.87c0-87.24,0-174.48,0-261.73
		c0-1.76-0.01-3.52,0-5.27c0.09-11.47,6.23-18.78,15.74-18.75c9.55,0.03,15.88,7.38,15.88,18.78c0.04,75.6,0.02,151.19,0.02,226.79
		c0,14.94,0,29.89,0.03,44.83c0,1.05,0.24,2.09,0.4,3.42c49.2,0,98.07,0,147.65,0c0-2.94,0-5.52,0-8.1
		c0-63.29-0.01-126.58,0.03-189.87c0-3.05,0.08-6.2,0.8-9.13c1.86-7.49,8.71-12.31,16.15-11.78c7.79,0.55,13.88,6.56,14.54,14.47
		c0.2,2.4,0.13,4.83,0.13,7.25c0.01,62.85,0,125.7,0,188.55c0,2.61,0,5.22,0,8.4c49.52,0,98.57,0,148.49,0c0-2.87,0-5.66,0-8.45
		c0-112.51,0-225.03,0.01-337.54c0-2.85-0.08-5.73,0.22-8.56c0.82-7.64,6.84-13.22,14.48-13.67c7.77-0.45,14.4,4.16,16.09,11.71
		c0.76,3.38,0.82,6.97,0.82,10.46c0.04,112.51,0.03,225.03,0.03,337.54c0,2.79,0,5.58,0,9.1c10.59,0,20.43,0.33,30.24-0.09
		c9.67-0.42,17.13,2.5,21.54,11.52C690.27,612.69,690.27,615.77,690.27,618.84z"/>
	<path d="M438.84,284.89c49.68-59.9,99.23-119.65,149.95-180.8c-12.91,0-24.01,0.05-35.11-0.02c-4.82-0.03-9.71,0.13-14.46-0.58
		c-8.27-1.23-13.63-8.24-13.1-16.32c0.52-7.84,6.38-14.39,14.39-14.47c27.69-0.29,55.38-0.34,83.07-0.02
		c9.48,0.11,14.83,7.12,14.88,18.13c0.1,22.2,0.03,44.39,0.03,66.59c0,3.74,0.16,7.49-0.09,11.2c-0.66,9.56-7.22,16.14-15.83,16.14
		c-8.92,0-15.5-6.89-15.66-16.82c-0.18-11.15-0.04-22.3-0.04-35.55c-2.73,3.06-4.26,4.67-5.67,6.38
		c-47.99,57.83-95.96,115.67-143.95,173.51c-8.05,9.71-14.16,10.96-25.22,5.07c-53.08-28.26-106.15-56.56-159.23-84.83
		c-2.11-1.13-4.28-2.16-7.88-3.96c-0.91,1.41-1.77,3.28-3.1,4.71c-54.85,58.53-109.76,117.01-164.61,175.54
		c-5.05,5.39-10.38,9.58-18.38,7.35c-11.05-3.08-15.39-15.47-8.49-24.65c2.23-2.97,4.92-5.62,7.47-8.34
		c56.7-60.41,113.4-120.82,170.12-181.22c9.51-10.13,14.31-10.9,26.58-4.37c52.7,28.06,105.39,56.13,158.09,84.19
		C434.49,282.76,436.45,283.69,438.84,284.89z"/>
</g>
</svg>
