<?xml version="1.0" encoding="utf-8"?>
<!-- Generator: Adobe Illustrator 26.3.1, SVG Export Plug-In . SVG Version: 6.00 Build 0)  -->
<svg version="1.1" id="Layer_1" xmlns="http://www.w3.org/2000/svg" xmlns:xlink="http://www.w3.org/1999/xlink" x="0px" y="0px"
	 viewBox="0 0 707.3 712.2" style="enable-background:new 0 0 707.3 712.2;" xml:space="preserve">
<g>
	<path d="M699.3,394.3c-0.4,1-0.9,2-1.2,3.1c-5.5,19.8-18.9,30.5-39,33.2c-15.4,2-30.8,4-46.3,5.7c-4.1,0.5-6.2,2-7.7,6
		c-3.7,10.1-7.9,20.1-12.4,29.9c-1.8,3.8-1,6.1,1.3,9c9.8,12.4,19.5,24.8,29.1,37.3c15.1,19.8,13.7,42.2-3.7,59.8
		c-14.3,14.4-28.6,28.8-43,43c-17.7,17.5-40.1,18.8-59.8,3.6c-12.5-9.6-25-19.3-37.3-29.1c-3-2.3-5.3-2.9-9-1.2
		c-9.6,4.5-19.3,8.5-29.3,12.2c-4.5,1.6-6.2,4-6.7,8.6c-1.9,16.8-3.7,33.6-6.5,50.2c-3.6,21.1-20.9,35.3-42.3,35.5
		c-20.7,0.2-41.5,0.1-62.2,0c-25.2-0.1-42.6-15.6-45.6-40.5c-1.9-15.4-3.9-30.8-5.7-46.2c-0.4-3.8-1.9-5.8-5.7-7.2
		c-10.1-3.8-20.1-7.9-29.9-12.4c-3.5-1.6-5.9-1.6-9,0.9c-12.5,10-25.1,19.8-37.8,29.5c-19.8,15-42.1,13.4-59.8-4.2
		c-14.2-14.1-28.4-28.3-42.5-42.5c-17.6-17.7-19.1-40-4-59.7c9.6-12.5,19.2-25,29.1-37.3c2.6-3.2,3-5.7,1.2-9.6
		c-4.4-9.6-8.5-19.4-12.1-29.3c-1.6-4.3-3.9-5.8-8.2-6.3c-15.7-1.7-31.3-3.6-46.9-5.8c-23.8-3.2-39-20.8-39.1-44.9
		c-0.1-20.3-0.1-40.5,0-60.8c0.1-24.8,15.5-42.1,40.2-45.2c15.4-1.9,30.8-4,46.3-5.6c4.1-0.5,6.2-2.1,7.6-6.1
		c3.6-9.9,7.7-19.7,12.1-29.3c1.8-3.8,1.7-6.3-0.9-9.6c-9.9-12.3-19.5-24.8-29.1-37.3c-15.1-19.8-13.7-42.1,3.8-59.8
		c14.3-14.4,28.6-28.7,43-43c17.4-17.3,39.8-18.8,59.2-4c12.6,9.5,25,19.2,37.3,29.1c3.4,2.7,6,3.3,10.2,1.3
		c9.3-4.4,18.9-8.3,28.7-11.8c4.5-1.6,6.2-4,6.7-8.7c1.6-15.4,3.5-30.9,5.7-46.2c2.8-20.1,13.8-33.2,33.8-38.4
		c0.9-0.2,1.6-0.7,2.4-1.1c26.1,0,52.3,0,78.4,0c0.8,0.4,1.6,0.9,2.4,1.1c19.3,5,30.5,17.6,33.5,37.1c2.4,15.8,4.3,31.7,6,47.6
		c0.5,4.7,2.3,7,6.8,8.6c9.7,3.5,19.4,7.4,28.7,11.8c4.2,2,6.8,1.4,10.1-1.3c12.1-9.7,24.5-19.2,36.8-28.7
		c19.6-15.1,42.2-13.8,59.8,3.7c14.4,14.3,28.8,28.6,43,43c17.4,17.6,18.8,40,3.7,59.8c-9.7,12.7-19.7,25.2-29.3,38
		c-1.3,1.8-1.8,5.4-1,7.6c4,10.5,8.3,20.9,13,31.1c1.1,2.3,4.1,4.8,6.5,5.2c12.2,1.9,24.6,3.1,36.8,4.7c12.8,1.6,25.5,3,35.7,12.3
		c7.6,7,11.5,15.8,14.5,25.4C699.3,342,699.3,368.1,699.3,394.3z M229.3,560.2c3.5,1.2,6.2,2.1,8.9,3.2c16,6.6,31.8,13.7,47.9,19.8
		c8,3,11.9,7.9,12.9,16.2c2.2,19,4.6,38,7.1,57c1.5,11.6,6.6,16,18.5,16c18.9,0,37.9,0,56.8,0c12.6,0,17.4-4.5,18.9-17
		c2.3-19,4.8-38,7.1-57c0.9-7.8,5-12.2,12.4-15c16-6,31.8-12.5,47.3-19.6c7.8-3.5,14-3.2,20.5,2.1c15.3,12.2,30.8,24.2,46.4,36.1
		c8.3,6.4,14.7,6,22.1-1.4c14.1-14,28.1-28,42.1-42.1c8-8,8.4-14.1,1.5-23.1c-12-15.5-23.9-31-36.1-46.4c-4.9-6.2-5.3-12.2-2-19.4
		c6.9-15.3,13.7-30.8,19.4-46.6c3.2-8.9,8.4-13,17.5-14c19-2,38-4.5,57-7.1c10.5-1.4,15-6.7,15-17.3c0.1-19.6,0.1-39.2,0-58.8
		c0-11-4.4-16.2-15.3-17.6c-19.2-2.6-38.4-5-57.6-7.2c-8.3-1-13.2-4.8-16.2-12.9c-5.8-15.6-12-31-19.1-46.1
		c-4-8.5-3.6-15.1,2.3-22.3c12-14.9,23.6-30.1,35.3-45.3c6.7-8.7,6.3-14.8-1.4-22.6c-13.7-13.8-27.4-27.4-41.1-41.1
		c-9-8.9-14.6-9.3-24.7-1.5c-15.1,11.7-30.3,23.4-45.3,35.3c-6.4,5.1-12.5,5.4-20,2c-15.3-7-30.8-13.7-46.6-19.4
		c-8.7-3.1-12.6-8.2-13.6-17.1c-2.1-19-4.6-38-7.1-57c-1.4-10.8-6.7-15.3-17.7-15.4c-19.4-0.1-38.8-0.1-58.1,0
		c-11.5,0-16.6,4.3-18.1,15.6c-2.5,19-5,37.9-7.1,57c-1,8.6-4.9,13.6-13.2,16.7c-15.6,5.7-31,12-46.1,19c-8.2,3.9-14.7,3.5-21.7-2.1
		c-14.9-12-30.1-23.6-45.3-35.3c-9.1-7-15.1-6.6-23.1,1.4c-13.7,13.7-27.4,27.4-41.1,41.1c-8.7,8.7-9.1,14.5-1.6,24.1
		c11.6,15,23.1,30,34.9,44.8c5.6,7,6.1,13.5,2.2,21.7c-7,14.8-13.4,30-18.9,45.4c-3.2,8.9-8.3,13-17.5,14c-18.8,2-37.5,4.5-56.3,7
		c-11.3,1.5-15.7,6.6-15.7,18c-0.1,19.1-0.1,38.3,0,57.5c0,12.2,4.5,17.1,16.6,18.6c19,2.4,38,4.8,57,7.1c8.1,1,12.7,5,15.5,12.8
		c5.8,15.6,11.9,31.1,19,46.1c4,8.5,3.6,15-2.2,22.3c-12,14.9-23.6,30.1-35.3,45.3c-6.7,8.7-6.3,14.8,1.4,22.6
		c13.7,13.7,27.4,27.4,41.1,41.1c8.9,8.9,14.7,9.3,24.7,1.6c15.2-11.7,30.2-23.6,45.4-35.2C222.1,563.4,225.9,562,229.3,560.2z"/>
	<path d="M497.3,359.4c-3.5,80.3-70.2,143.2-148.2,139.9c-80.6-3.5-143.5-70-140.2-148.5c3.3-80.3,70.6-143.5,148.8-139.9
		C438.1,214.7,500.7,281.3,497.3,359.4z M353,239.9c-63.8,0.1-115.1,51.4-115.1,115.2c0,63.7,51.3,115.1,115,115.3
		c64,0.1,115.6-51.6,115.4-115.5C468.2,291,416.8,239.8,353,239.9z"/>
</g>
</svg>
