<?xml version="1.0" encoding="utf-8"?>
<!-- Generator: Adobe Illustrator 26.3.1, SVG Export Plug-In . SVG Version: 6.00 Build 0)  -->
<svg version="1.1" id="Layer_1" xmlns="http://www.w3.org/2000/svg" xmlns:xlink="http://www.w3.org/1999/xlink" x="0px" y="0px"
	 viewBox="0 0 707.27 712.18" style="enable-background:new 0 0 707.27 712.18;" xml:space="preserve">
<style type="text/css">
	.st0{fill:#FFFFFF;}
</style>
<g>
	<path class="st0" d="M699.27,394.29c0,102.71,0,205.42,0,308.18c-231.1,0-462.2,0-693.47,0c0-231.12,0-462.29,0-693.47
		c102.66,0,205.39,0,308.11,0c-0.81,0.37-1.59,0.88-2.44,1.1c-19.92,5.2-30.93,18.33-33.75,38.41c-2.16,15.38-4.05,30.8-5.69,46.24
		c-0.49,4.64-2.17,7.04-6.69,8.67c-9.72,3.5-19.33,7.4-28.66,11.82c-4.17,1.98-6.76,1.44-10.16-1.29
		c-12.3-9.87-24.75-19.54-37.3-29.08c-19.46-14.79-41.79-13.25-59.23,4.01c-14.41,14.27-28.75,28.6-43.02,43.01
		c-17.47,17.63-18.87,40-3.75,59.77c9.58,12.52,19.21,25.01,29.07,37.31c2.64,3.29,2.66,5.8,0.92,9.58
		c-4.43,9.58-8.46,19.37-12.1,29.28c-1.47,3.99-3.49,5.62-7.64,6.07c-15.44,1.7-30.84,3.71-46.26,5.65
		C22.55,282.66,7.07,300.03,7,324.79c-0.06,20.28-0.06,40.55,0,60.83c0.08,24.08,15.32,41.65,39.11,44.88
		c15.61,2.12,31.26,4.01,46.92,5.75c4.28,0.48,6.65,1.99,8.22,6.3c3.6,9.92,7.65,19.7,12.1,29.27c1.8,3.88,1.4,6.37-1.16,9.57
		c-9.84,12.32-19.49,24.79-29.06,37.31c-15.08,19.74-13.58,42,4,59.73c14.12,14.24,28.32,28.39,42.54,42.53
		c17.66,17.56,39.95,19.18,59.77,4.18c12.75-9.65,25.38-19.47,37.85-29.47c3.13-2.51,5.47-2.51,9.01-0.9
		c9.82,4.46,19.79,8.61,29.9,12.38c3.76,1.4,5.26,3.38,5.69,7.2c1.76,15.43,3.78,30.83,5.66,46.25
		c3.04,24.96,20.46,40.49,45.64,40.55c20.73,0.05,41.46,0.15,62.19-0.04c21.39-0.19,38.71-14.41,42.3-35.49
		c2.83-16.63,4.65-33.43,6.55-50.2c0.53-4.63,2.19-7,6.7-8.64c9.92-3.6,19.69-7.68,29.26-12.15c3.72-1.74,6.04-1.18,9,1.16
		c12.35,9.8,24.82,19.44,37.31,29.06c19.68,15.15,42.1,13.84,59.79-3.62c14.43-14.24,28.76-28.6,43.02-43.01
		c17.44-17.63,18.83-40,3.72-59.79c-9.57-12.53-19.27-24.96-29.06-37.32c-2.31-2.92-3.03-5.23-1.27-8.99
		c4.56-9.77,8.7-19.76,12.43-29.87c1.49-4.02,3.57-5.57,7.68-6.02c15.44-1.71,30.86-3.62,46.26-5.68
		c20.07-2.68,33.43-13.39,38.97-33.2C698.33,396.31,698.86,395.31,699.27,394.29z"/>
	<path d="M699.27,394.29c-0.42,1.03-0.94,2.02-1.24,3.08c-5.54,19.82-18.9,30.53-38.97,33.2c-15.4,2.05-30.82,3.97-46.26,5.68
		c-4.11,0.45-6.19,2-7.68,6.02c-3.74,10.11-7.88,20.1-12.43,29.87c-1.75,3.76-1.03,6.07,1.27,8.99
		c9.79,12.36,19.49,24.79,29.06,37.32c15.11,19.79,13.72,42.16-3.72,59.79c-14.26,14.42-28.59,28.77-43.02,43.01
		c-17.69,17.46-40.1,18.77-59.79,3.62c-12.49-9.62-24.96-19.27-37.31-29.06c-2.96-2.35-5.28-2.9-9-1.16
		c-9.56,4.46-19.34,8.55-29.26,12.15c-4.51,1.64-6.18,4-6.7,8.64c-1.9,16.77-3.72,33.58-6.55,50.2
		c-3.59,21.07-20.91,35.29-42.3,35.49c-20.73,0.19-41.46,0.09-62.19,0.04c-25.18-0.06-42.6-15.59-45.64-40.55
		c-1.88-15.42-3.9-30.82-5.66-46.25c-0.44-3.81-1.94-5.8-5.69-7.2c-10.1-3.77-20.08-7.92-29.9-12.38c-3.54-1.61-5.89-1.61-9.01,0.9
		c-12.48,10-25.1,19.82-37.85,29.47c-19.81,15-42.11,13.38-59.77-4.18c-14.22-14.14-28.42-28.3-42.54-42.53
		c-17.58-17.73-19.08-39.99-4-59.73c9.57-12.53,19.22-25,29.06-37.31c2.56-3.2,2.96-5.69,1.16-9.57c-4.45-9.57-8.5-19.35-12.1-29.27
		c-1.56-4.31-3.94-5.82-8.22-6.3c-15.66-1.74-31.31-3.63-46.92-5.75c-23.78-3.23-39.03-20.8-39.11-44.88
		c-0.07-20.28-0.06-40.55,0-60.83c0.07-24.76,15.54-42.13,40.23-45.23c15.41-1.93,30.82-3.95,46.26-5.65
		c4.14-0.46,6.17-2.08,7.64-6.07c3.64-9.91,7.67-19.7,12.1-29.28c1.75-3.78,1.72-6.29-0.92-9.58c-9.86-12.3-19.49-24.79-29.07-37.31
		c-15.12-19.77-13.72-42.14,3.75-59.77c14.27-14.41,28.61-28.74,43.02-43.01c17.44-17.27,39.77-18.8,59.23-4.01
		c12.55,9.54,25.01,19.21,37.3,29.08c3.4,2.72,5.99,3.26,10.16,1.29c9.33-4.42,18.94-8.32,28.66-11.82c4.51-1.63,6.2-4.03,6.69-8.67
		c1.63-15.44,3.53-30.87,5.69-46.24c2.82-20.09,13.84-33.21,33.75-38.41c0.85-0.22,1.63-0.73,2.44-1.1c26.14,0,52.28,0,78.42,0
		c0.81,0.37,1.59,0.88,2.44,1.1c19.33,5.01,30.5,17.6,33.49,37.1c2.42,15.79,4.26,31.68,5.95,47.57c0.5,4.7,2.3,6.96,6.76,8.57
		c9.72,3.51,19.36,7.36,28.66,11.84c4.21,2.03,6.76,1.41,10.13-1.28c12.13-9.71,24.46-19.18,36.76-28.68
		c19.58-15.1,42.18-13.75,59.81,3.68c14.42,14.26,28.75,28.61,43.02,43.01c17.43,17.59,18.8,39.98,3.66,59.79
		c-9.71,12.71-19.72,25.18-29.27,38.01c-1.35,1.82-1.8,5.41-0.99,7.56c3.96,10.51,8.27,20.91,12.99,31.1
		c1.06,2.29,4.07,4.78,6.49,5.16c12.23,1.92,24.56,3.13,36.85,4.66c12.76,1.59,25.52,2.95,35.73,12.28
		c7.63,6.97,11.55,15.84,14.46,25.39C699.27,342.01,699.27,368.15,699.27,394.29z M229.3,560.25c3.47,1.25,6.24,2.12,8.91,3.23
		c15.97,6.62,31.77,13.71,47.95,19.77c8.05,3.02,11.94,7.89,12.88,16.18c2.17,19.01,4.61,37.99,7.06,56.97
		c1.5,11.62,6.59,16,18.46,16.03c18.93,0.05,37.86,0.04,56.79,0c12.56-0.03,17.4-4.45,18.94-17.02c2.34-18.99,4.78-37.97,7.06-56.97
		c0.93-7.77,4.99-12.23,12.43-15.05c15.95-6.04,31.78-12.51,47.29-19.6c7.75-3.55,13.95-3.16,20.55,2.1
		c15.33,12.21,30.85,24.17,46.39,36.12c8.33,6.41,14.67,5.99,22.11-1.39c14.08-13.97,28.09-28,42.07-42.06
		c8.01-8.05,8.42-14.07,1.45-23.13c-11.95-15.53-23.94-31.04-36.09-46.41c-4.89-6.19-5.26-12.16-1.99-19.39
		c6.94-15.34,13.72-30.8,19.44-46.62c3.22-8.91,8.37-12.97,17.53-13.95c19.03-2.02,38-4.54,56.97-7.1c10.45-1.41,14.95-6.7,15-17.31
		c0.1-19.6,0.09-39.2,0.01-58.81c-0.05-11.05-4.42-16.19-15.34-17.65c-19.19-2.56-38.4-4.99-57.64-7.2
		c-8.29-0.95-13.19-4.82-16.17-12.89c-5.75-15.58-11.97-31.04-19.06-46.05c-4.01-8.49-3.56-15.05,2.29-22.28
		c12.04-14.88,23.64-30.12,35.31-45.3c6.7-8.72,6.28-14.84-1.44-22.6c-13.66-13.75-27.38-27.43-41.1-41.11
		c-8.96-8.94-14.63-9.29-24.66-1.52c-15.14,11.72-30.31,23.4-45.32,35.29c-6.39,5.06-12.48,5.44-19.98,2.01
		c-15.31-7-30.82-13.68-46.64-19.41c-8.68-3.14-12.62-8.22-13.6-17.06c-2.09-19.02-4.57-38-7.09-56.96
		c-1.44-10.85-6.67-15.32-17.67-15.37c-19.38-0.08-38.76-0.07-58.14-0.01c-11.53,0.04-16.6,4.34-18.09,15.64
		c-2.5,18.97-4.97,37.95-7.09,56.96c-0.96,8.57-4.87,13.61-13.21,16.67c-15.59,5.71-31.04,11.97-46.06,19.03
		c-8.25,3.88-14.68,3.51-21.7-2.13c-14.93-11.98-30.15-23.61-45.33-35.28c-9.13-7.03-15.06-6.64-23.1,1.36
		c-13.73,13.67-27.42,27.39-41.09,41.13c-8.65,8.69-9.06,14.52-1.62,24.14c11.58,14.97,23.06,30.01,34.92,44.75
		c5.63,7,6.12,13.48,2.25,21.72c-6.97,14.82-13.36,29.97-18.87,45.39c-3.18,8.92-8.35,13.02-17.5,14
		c-18.8,2.01-37.55,4.52-56.3,6.98c-11.29,1.48-15.68,6.59-15.72,18.04c-0.07,19.15-0.06,38.3,0,57.45
		c0.03,12.16,4.46,17.06,16.65,18.59c18.99,2.38,37.97,4.82,56.98,7.06c8.05,0.95,12.65,5.04,15.52,12.77
		c5.78,15.57,11.93,31.06,19.03,46.06c4.02,8.5,3.62,15.05-2.22,22.28c-12.03,14.89-23.64,30.13-35.32,45.3
		c-6.73,8.74-6.31,14.83,1.4,22.58c13.67,13.74,27.38,27.43,41.11,41.1c8.95,8.92,14.66,9.32,24.67,1.6
		c15.16-11.7,30.17-23.58,45.41-35.17C222.08,563.41,225.93,562.01,229.3,560.25z"/>
	<path class="st0" d="M699.27,315.88c-2.9-9.55-6.82-18.42-14.46-25.39c-10.21-9.33-22.98-10.69-35.73-12.28
		c-12.29-1.53-24.62-2.74-36.85-4.66c-2.43-0.38-5.43-2.87-6.49-5.16c-4.72-10.19-9.03-20.59-12.99-31.1
		c-0.81-2.14-0.37-5.74,0.99-7.56c9.54-12.83,19.56-25.3,29.27-38.01c15.14-19.81,13.77-42.2-3.66-59.79
		c-14.27-14.41-28.6-28.76-43.02-43.01c-17.63-17.43-40.23-18.78-59.81-3.68c-12.31,9.49-24.63,18.96-36.76,28.68
		c-3.36,2.69-5.91,3.31-10.13,1.28c-9.3-4.48-18.94-8.34-28.66-11.84c-4.46-1.61-6.26-3.87-6.76-8.57
		c-1.69-15.89-3.52-31.78-5.95-47.57c-2.99-19.51-14.16-32.09-33.49-37.1c-0.85-0.22-1.63-0.73-2.44-1.1c102.31,0,204.62,0,306.93,0
		C699.27,111.29,699.27,213.59,699.27,315.88z"/>
	<path class="st0" d="M229.3,560.25c-3.37,1.77-7.22,3.16-10.33,5.53c-15.24,11.59-30.26,23.47-45.41,35.17
		c-10.01,7.72-15.72,7.32-24.67-1.6c-13.73-13.68-27.44-27.37-41.11-41.1c-7.71-7.75-8.13-13.84-1.4-22.58
		c11.68-15.17,23.29-30.41,35.32-45.3c5.84-7.23,6.24-13.78,2.22-22.28c-7.1-15-13.25-30.49-19.03-46.06
		c-2.87-7.74-7.47-11.82-15.52-12.77c-19.01-2.24-37.99-4.68-56.98-7.06c-12.19-1.53-16.62-6.43-16.65-18.59
		c-0.05-19.15-0.06-38.3,0-57.45c0.04-11.45,4.43-16.56,15.72-18.04c18.75-2.46,37.5-4.97,56.3-6.98c9.16-0.98,14.32-5.08,17.5-14
		c5.5-15.42,11.9-30.57,18.87-45.39c3.88-8.24,3.39-14.72-2.25-21.72c-11.86-14.74-23.34-29.79-34.92-44.75
		c-7.44-9.62-7.03-15.45,1.62-24.14c13.67-13.73,27.36-27.45,41.09-41.13c8.04-8,13.97-8.39,23.1-1.36
		c15.18,11.67,30.4,23.3,45.33,35.28c7.03,5.64,13.45,6.01,21.7,2.13c15.02-7.06,30.47-13.32,46.06-19.03
		c8.35-3.06,12.25-8.09,13.21-16.67c2.13-19.02,4.59-37.99,7.09-56.96c1.49-11.3,6.56-15.6,18.09-15.64
		c19.38-0.06,38.76-0.07,58.14,0.01c11,0.05,16.23,4.52,17.67,15.37c2.52,18.97,5,37.95,7.09,56.96c0.97,8.84,4.92,13.92,13.6,17.06
		c15.82,5.72,31.33,12.41,46.64,19.41c7.5,3.43,13.59,3.05,19.98-2.01c15-11.89,30.18-23.57,45.32-35.29
		c10.03-7.77,15.7-7.42,24.66,1.52c13.72,13.68,27.44,27.37,41.1,41.11c7.71,7.76,8.14,13.87,1.44,22.6
		c-11.67,15.18-23.27,30.42-35.31,45.3c-5.85,7.23-6.3,13.78-2.29,22.28c7.09,15.01,13.3,30.47,19.06,46.05
		c2.98,8.07,7.88,11.94,16.17,12.89c19.23,2.21,38.45,4.64,57.64,7.2c10.92,1.46,15.3,6.6,15.34,17.65
		c0.08,19.6,0.1,39.2-0.01,58.81c-0.06,10.61-4.55,15.9-15,17.31c-18.96,2.56-37.94,5.08-56.97,7.1
		c-9.17,0.97-14.31,5.04-17.53,13.95c-5.72,15.82-12.5,31.28-19.44,46.62c-3.27,7.23-2.9,13.2,1.99,19.39
		c12.15,15.37,24.14,30.88,36.09,46.41c6.97,9.06,6.56,15.07-1.45,23.13c-13.98,14.06-27.99,28.09-42.07,42.06
		c-7.44,7.38-13.78,7.8-22.11,1.39c-15.53-11.95-31.06-23.91-46.39-36.12c-6.6-5.26-12.8-5.65-20.55-2.1
		c-15.51,7.09-31.33,13.56-47.29,19.6c-7.44,2.82-11.5,7.28-12.43,15.05c-2.29,19-4.72,37.98-7.06,56.97
		c-1.55,12.57-6.38,16.99-18.94,17.02c-18.93,0.04-37.86,0.05-56.79,0c-11.88-0.03-16.96-4.41-18.46-16.03
		c-2.45-18.98-4.89-37.96-7.06-56.97c-0.95-8.29-4.83-13.16-12.88-16.18c-16.18-6.07-31.98-13.15-47.95-19.77
		C235.54,562.36,232.77,561.49,229.3,560.25z M497.32,359.37c3.41-78.1-59.19-144.69-139.56-148.46
		c-78.28-3.68-145.54,59.53-148.84,139.86c-3.22,78.54,59.58,145.05,140.24,148.5C427.14,502.61,493.82,439.65,497.32,359.37z"/>
	<path d="M497.32,359.37c-3.5,80.27-70.18,143.23-148.16,139.9c-80.65-3.45-143.46-69.96-140.24-148.5
		c3.3-80.33,70.56-143.54,148.84-139.86C438.13,214.68,500.73,281.28,497.32,359.37z M353,239.85
		c-63.77,0.08-115.08,51.43-115.11,115.18c-0.03,63.72,51.28,115.14,115.02,115.28c63.97,0.14,115.63-51.56,115.45-115.54
		C468.19,291.01,416.75,239.77,353,239.85z"/>
	<path class="st0" d="M353,239.85c63.75-0.08,115.19,51.16,115.36,114.92c0.18,63.98-51.48,115.67-115.45,115.54
		c-63.75-0.14-115.05-51.56-115.02-115.28C237.92,291.28,289.23,239.93,353,239.85z"/>
</g>
</svg>
